<svg xmlns="http://www.w3.org/2000/svg" version="1.1" xmlns:xlink="http://www.w3.org/1999/xlink" xmlns:svgjs="http://svgjs.dev/svgjs" width="2000" height="2250" viewBox="0 0 2000 2250"><g transform="matrix(1,0,0,1,0,0)"><svg viewBox="0 0 320 360" data-background-color="#413e3e" preserveAspectRatio="xMidYMid meet" height="2250" width="2000" xmlns="http://www.w3.org/2000/svg" xmlns:xlink="http://www.w3.org/1999/xlink"><g id="tight-bounds" transform="matrix(1,0,0,1,0,0)"><svg viewBox="0 0 320 360" height="360" width="320"><rect width="320" height="360" fill="[object Object]" mask="url(&quot;#bf5482b9-415b-4f5e-b24c-50992acc1356&quot;)" data-fill-palette-color="tertiary"></rect><rect width="320" height="360" fill="[object Object]" mask="url(&quot;#ba39e987-ca98-4254-9567-65ba9b963449&quot;)" data-fill-palette-color="secondary"></rect><g><svg></svg></g><g><svg viewBox="0 0 320 360" height="360" width="320"><g><path xmlns="http://www.w3.org/2000/svg" d="M320 187.111c0-45.764-20.238-86.866-52.203-114.908-28.043-31.964-69.145-52.203-114.908-52.203-84.302 0-152.889 68.587-152.889 152.889 0 45.753 20.231 86.848 52.185 114.891 28.043 31.975 69.152 52.22 114.926 52.22 0.299 0 0.59-0.021 0.889-0.021 0.299 0 0.59 0.021 0.889 0.021 83.456 0 151.111-67.655 151.111-151.111 0-0.299-0.021-0.59-0.021-0.889 0-0.299 0.021-0.59 0.021-0.889zM59.833 263.097c-15.093-21.255-24.071-47.143-24.256-75.097 0.48-72.928 59.492-131.943 132.423-132.423 27.954 0.185 53.845 9.163 75.097 24.256 24.366 23.627 39.57 56.64 39.57 93.056 0 71.559-58.219 129.778-129.778 129.778-36.416 0-69.429-15.204-93.056-39.57zM3.556 172.889c0-82.343 66.99-149.333 149.333-149.333 35.051 0 67.292 12.167 92.8 32.462-22.98-13.824-49.863-21.796-78.578-21.796-84.302 0-152.889 68.587-152.889 152.889 0 28.708 7.968 55.584 21.785 78.56-20.288-25.5-32.452-57.739-32.451-92.782zM167.111 318.667c-35.84 0-68.363-14.418-92.107-37.743 21.952 15.89 48.864 25.298 77.885 25.298 73.522 0 133.333-59.812 133.333-133.333 0-29.02-9.408-55.932-25.298-77.885 23.324 23.744 37.742 56.267 37.743 92.107 0 72.54-59.015 131.556-131.556 131.556z" fill="[object Object]" fill-rule="nonzero" stroke="none" stroke-width="1" stroke-linecap="butt" stroke-linejoin="miter" stroke-miterlimit="10" stroke-dasharray="" stroke-dashoffset="0" font-family="none" font-weight="none" font-size="none" text-anchor="none" style="mix-blend-mode: normal" data-fill-palette-color="tertiary"></path></g><g transform="matrix(1,0,0,1,64,125.15400397723994)"><svg viewBox="0 0 192 109.69199204552012" height="109.69199204552012" width="192"><g><svg viewBox="0 0 192 109.69199204552012" height="109.69199204552012" width="192"><g><svg viewBox="0 0 192 109.69199204552012" height="109.69199204552012" width="192"><g id="textblocktransform"><svg viewBox="0 0 192 109.69199204552012" height="109.69199204552012" width="192" id="textblock"><g><svg viewBox="0 0 192 81.97559218693596" height="81.97559218693596" width="192"><path d="M191.55 17.582C190.648 9.073 188.075 6.708 188.075 6.708 180.177-2.057 170.321-0.168 161.466 1.092 145.832 1.143 130.262 3.015 114.664 4.019 81.926 4.172 48.907 1.653 16.331 7.865 13.271 9.771-3.175 8.239 0.544 18.671 1.519 23.011 5.076 27.827 4.967 31.809 5.455 32.507 6.132 30.907 6.42 31.911 7.431 34.617 9.083 33.341 10.437 34.941 8.551 39.212 9.905 42.769 11.195 46.496 8.921 47.466 6.005 47.006 4.696 50.223 4.561 52.554 3.83 52.112 3.027 52.01 2.44 51.942 1.257 52.197 1.456 52.929 2.133 55.43-0.774 56.877 1.05 59.328-0.205 61.982 1.916 64.28 1.627 67.156 1.591 67.734 1.79 68.228 2.106 68.364 3.505 69.096 1.465 70.525 1.682 72.074 16.033 82.659 31.604 75.342 46.308 80.209 50.126 76.805 47.256 81.417 48.781 80.702 49.972 79.868 50.839 83.323 52.184 81.366 52.392 80.804 52.076 79.477 52.816 79.732 53.204 79.868 53.547 79.834 53.601 79.051 53.682 77.877 52.969 78.609 52.78 77.996 54.829 74.899 54.323 82.268 56.246 81.962 56.156 81.06 55.596 79.766 56.742 79.936 57.88 78.643 57.916 77.571 58.927 80.481 58.963 81.111 59.143 81.553 59.432 81.859 62.591 78.694 65.732 82.983 69.045 81.553 71.076 79.987 73.026 82.404 75.084 81.808 75.806 81.332 76.537 80.481 77.232 81.911 85.744 82.217 94.815 80.94 102.885 81.962 124.449 80.056 147.493 82.744 170.23 80.226 175.592 79.256 181.161 77.877 186.387 76.771 186.387 76.771 190.621 73.742 190.621 60.127S191.523 48.215 191.659 37.374C191.794 26.534 192.426 26.091 191.523 17.582Z" opacity="1" fill="[object Object]" data-fill-palette-color="tertiary"></path><g transform="matrix(1,0,0,1,27.072000000000003,17.083765800000002)"><svg width="137.856" viewBox="-2 -40.79999923706055 159.44000244140625 55.94999694824219" height="47.808060586935945" data-palette-color="#ffffff"><path d="M12.65 0L3.65 0 3.65-16.2 1-21.2 3.65-23.6Q3.4-24.45 3.28-25.88 3.15-27.3 3.15-28.2L3.15-28.2Q3.15-31.05 4.48-33.2 5.8-35.35 8.15-36.58 10.5-37.8 13.45-37.8L13.45-37.8Q14.85-37.8 16.43-37.68 18-37.55 19.15-37.25L19.15-37.25 24.5-34.2 20.65-27.25 14.9-30.75Q13.2-30.75 12.4-29.53 11.6-28.3 11.6-26.8L11.6-26.8Q11.6-25.7 11.95-24.85 12.3-24 12.65-23.6L12.65-23.6 20.65-23.6 20.65-17.6 12.65-17.6 12.65-8.1 13.15-3.05 12.65 0ZM34.45 0L25.55 0 25.55-15.65 24.5-20.65 25.55-23.65 32.35-23.65 33.35-22.5Q33.35-22.5 34.05-22.93 34.75-23.35 36.02-23.75 37.3-24.15 39-24.15L39-24.15Q40-24.15 41-24 42-23.85 42.55-23.6L42.55-23.6 45.8-20.85 42.55-14.45 35.95-17.2 34.45-16.7 34.45 0ZM58.8 0.5L58.8 0.5Q54.95 0.5 51.95-0.65 48.95-1.8 47.25-4.5 45.55-7.2 45.55-11.8L45.55-11.8Q45.55-15.1 46.67-17.45 47.8-19.8 49.7-21.28 51.59-22.75 53.95-23.43 56.3-24.1 58.8-24.1L58.8-24.1Q63.09-24.1 65.42-23.25 67.75-22.4 68.5-21.9L68.5-21.9 71-13.95 70-10.85 54.5-10.85Q54.84-9 56.34-7.75 57.84-6.5 61.3-6.5L61.3-6.5Q64-6.5 65.95-7.1 67.9-7.7 69-8.15L69-8.15 69-1.45Q67.5-0.65 64.67-0.08 61.84 0.5 58.8 0.5ZM54.55-14.05L54.55-14.05 61.45-15.05 61-17.2Q60.65-17.4 59.97-17.5 59.3-17.6 58.8-17.6L58.8-17.6Q57.4-17.6 56.47-17 55.55-16.4 55.07-15.58 54.59-14.75 54.55-14.05ZM84.19 0L75.19 0 75.19-15.05 74.19-20.55 75.74-23.6 83.19-23.6 83.19-21.45 83.64-21.15Q84.19-21.65 85.17-22.33 86.14-23 87.54-23.55 88.94-24.1 90.69-24.1L90.69-24.1Q95.19-24.1 97.44-21.55 99.69-19 99.69-14.4L99.69-14.4 99.69-8.05 100.74-3.05 99.69 0 90.69 0 90.69-13.1Q90.69-15 89.87-16.03 89.04-17.05 87.29-17.05L87.29-17.05 84.19-16.1 84.19 0ZM127.94 0L103.54 0 103.54-4.5 115.44-17.15 103.59-17.15 103.59-23.65 127.04-23.65 127.04-18.95 119.14-9.35 116.14-6.5 117.64-6.5 127.94-7.5 127.94 0ZM133.99 12.15L133.99 12.15 126.94 9.65 128.94 2.2 135.94 4.2Q138.09 4.2 139.06 3.08 140.04 1.95 140.54-0.05L140.54-0.05 135.39-0.05 129.89-17.15 128.94-23.65 138.44-23.65 141.19-7.15 142.19-7.15 144.94-23.65 154.44-23.65Q154.44-23.65 154.11-22.08 153.79-20.5 153.21-17.9 152.64-15.3 151.86-12.18 151.09-9.05 150.24-5.88 149.39-2.7 148.49-0.05L148.49-0.05Q147.14 4.1 145.26 6.8 143.39 9.5 140.69 10.83 137.99 12.15 133.99 12.15Z" opacity="1" transform="matrix(1,0,0,1,0,0)" fill="#ffffff" class="undefined-text-0" data-fill-palette-color="quaternary" id="text-0"></path></svg></g></svg></g><g transform="matrix(1,0,0,1,38.217,92.23496377511646)"><svg viewBox="0 0 115.566 17.45702827040366" height="17.45702827040366" width="115.566"><g transform="matrix(1,0,0,1,0,0)"><svg width="115.566" viewBox="-1.9299999475479126 -42.599998474121094 382.8500061035156 58.689998626708984" height="17.45702827040366" data-palette-color="url(#26dc45f3-a72f-464d-a431-88b193c3fdc8)"></svg></g></svg></g></svg></g></svg></g><g></g></svg></g></svg></g></svg></g><defs><linearGradient x1="0.054" x2="0.941" y1="0.5" y2="0.5" id="26dc45f3-a72f-464d-a431-88b193c3fdc8"><stop stop-color="#8c8c8c" offset="0"></stop><stop stop-color="#e3e4e5" offset="0.498"></stop><stop stop-color="#8c8c8c" offset="1"></stop></linearGradient><linearGradient x1="0.054" x2="0.941" y1="0.5" y2="0.5" id="6be39609-8990-4d67-bed5-57d309c44733"><stop stop-color="#9c7945" offset="0"></stop><stop stop-color="#faf3aa" offset="0.498"></stop><stop stop-color="#9c7945" offset="1"></stop></linearGradient></defs><mask id="ba39e987-ca98-4254-9567-65ba9b963449"><g id="SvgjsG3045"><svg viewBox="0 0 320 360" height="360" width="320"><g><svg></svg></g><g><svg viewBox="0 0 320 360" height="360" width="320"><g></g><g transform="matrix(1,0,0,1,64,125.15400397723994)"><svg viewBox="0 0 192 109.69199204552012" height="109.69199204552012" width="192"><g><svg viewBox="0 0 192 109.69199204552012" height="109.69199204552012" width="192"><g><svg viewBox="0 0 192 109.69199204552012" height="109.69199204552012" width="192"><g id="SvgjsG3044"><svg viewBox="0 0 192 109.69199204552012" height="109.69199204552012" width="192" id="SvgjsSvg3043"><g><svg viewBox="0 0 192 81.97559218693596" height="81.97559218693596" width="192"><g transform="matrix(1,0,0,1,27.072000000000003,17.083765800000002)"><svg width="137.856" viewBox="-2 -40.79999923706055 159.44000244140625 55.94999694824219" height="47.808060586935945" data-palette-color="#ffffff"></svg></g></svg></g><g transform="matrix(1,0,0,1,38.217,92.23496377511646)"><svg viewBox="0 0 115.566 17.45702827040366" height="17.45702827040366" width="115.566"><g transform="matrix(1,0,0,1,0,0)"><svg width="115.566" viewBox="-1.9299999475479126 -42.599998474121094 382.8500061035156 58.689998626708984" height="17.45702827040366" data-palette-color="url(#26dc45f3-a72f-464d-a431-88b193c3fdc8)"><path d="M6.27 0L6.27-21.66 1.07-21.66 1.51-24.63 6.3-25.88 6.3-27Q6.3-29.59 7.08-31.87 7.86-34.16 9.34-35.88 10.82-37.6 12.99-38.6 15.16-39.6 17.94-39.6L17.94-39.6Q19.02-39.6 20.2-39.44 21.39-39.28 22.49-38.94L22.49-38.94 21.48-34.72 21-34.47Q20.24-34.89 19.35-35.13 18.46-35.38 17.48-35.38L17.48-35.38Q16.06-35.38 15.06-34.81 14.06-34.25 13.43-33.26 12.79-32.28 12.5-30.92 12.21-29.57 12.21-27.98L12.21-27.98 12.21-25.88 20.8-25.88 19.75-21.66 12.21-21.66 12.21 0 6.27 0ZM26.73 0L26.73-39.11 32.64-39.11 32.64 0 26.73 0ZM47.24 0L37.98-25.88 44.53-25.88 49.56-9.3 50.68-4.44 51.17-4.44 52.27-9.3 57.34-25.88 62.93-25.88 49.04 13.09 43.57 13.09 49.04 0 47.24 0ZM76.31-25.88L82.75-25.88 86.9-8.84 87.66-4.44 88.12-4.44 88.98-8.79 93.57-25.1 100.16-25.1 104.73-8.84 105.63-4.44 106.12-4.44 106.87-8.79 111.07-25.88 116.54-25.88 108.73 0 102.14 0 97.79-14.94 96.72-19.85 96.23-19.85 95.11-14.92 90.64 0 84.02 0 76.31-25.88ZM122.06 0L122.06-25.88 127.99-25.88 127.99 0 122.06 0ZM125.01-30.98L125.01-30.98Q124.23-30.98 123.58-31.24 122.94-31.49 122.46-31.93 121.98-32.37 121.73-32.98 121.47-33.59 121.47-34.3L121.47-34.3Q121.47-35.03 121.75-35.66 122.03-36.28 122.53-36.76 123.03-37.23 123.71-37.5 124.38-37.77 125.16-37.77L125.16-37.77Q125.92-37.77 126.55-37.5 127.18-37.23 127.65-36.78 128.11-36.33 128.38-35.71 128.65-35.08 128.65-34.38L128.65-34.38Q128.65-33.64 128.37-33.02 128.09-32.4 127.59-31.95 127.09-31.49 126.43-31.24 125.77-30.98 125.01-30.98ZM138.39-7.15L138.39-21.66 133.19-21.66 133.63-24.44Q135.56-24.93 136.72-25.54 137.88-26.15 138.64-27.04 139.41-27.93 139.99-29.21 140.56-30.49 141.32-32.32L141.32-32.32 144.15-32.32 144.15-25.88 153.45-25.88 152.4-21.66 144.32-21.66 144.32-8.33Q144.32-7.13 144.66-6.31 145-5.49 145.64-4.98 146.27-4.47 147.17-4.24 148.06-4 149.18-4L149.18-4Q150.25-4 151.32-4.2 152.38-4.39 153.33-4.76L153.33-4.76 153.33-1.78Q151.67-0.66 149.78-0.09 147.89 0.49 145.96 0.49L145.96 0.49Q142.27 0.49 140.33-1.51 138.39-3.52 138.39-7.15L138.39-7.15ZM160.02 0L160.02-39.11 165.92-39.11 165.92-21.7Q166.83-22.51 167.91-23.33 169-24.15 170.21-24.83 171.42-25.51 172.76-25.94 174.1-26.37 175.54-26.37L175.54-26.37Q177.3-26.37 178.74-25.71 180.18-25.05 181.21-23.85 182.23-22.66 182.8-20.97 183.36-19.29 183.36-17.24L183.36-17.24 183.36 0 177.42 0 177.42-16.58Q177.42-17.9 177.06-18.88 176.69-19.87 176.06-20.53 175.42-21.19 174.53-21.52 173.64-21.85 172.61-21.85L172.61-21.85Q170.81-21.85 169.2-20.92 167.59-20 165.92-18.48L165.92-18.48 165.92 0 160.02 0ZM204.35 0L204.35-21.66 199.15-21.66 199.59-24.63 204.37-25.88 204.37-27Q204.37-29.59 205.15-31.87 205.93-34.16 207.41-35.88 208.89-37.6 211.06-38.6 213.23-39.6 216.02-39.6L216.02-39.6Q217.09-39.6 218.28-39.44 219.46-39.28 220.56-38.94L220.56-38.94 219.56-34.72 219.07-34.47Q218.31-34.89 217.42-35.13 216.53-35.38 215.55-35.38L215.55-35.38Q214.14-35.38 213.14-34.81 212.14-34.25 211.5-33.26 210.87-32.28 210.57-30.92 210.28-29.57 210.28-27.98L210.28-27.98 210.28-25.88 218.87-25.88 217.82-21.66 210.28-21.66 210.28 0 204.35 0ZM237.77-3.81L237.77-3.81Q237.13-3.27 236.24-2.53 235.35-1.78 234.26-1.11 233.18-0.44 231.9 0.02 230.61 0.49 229.2 0.49L229.2 0.49Q227.76 0.49 226.53-0.04 225.29-0.56 224.38-1.5 223.46-2.44 222.94-3.75 222.41-5.05 222.41-6.64L222.41-6.64Q222.41-8.3 223.08-9.89 223.75-11.47 225.33-12.72 226.9-13.96 229.49-14.73 232.08-15.5 235.89-15.5L235.89-15.5 237.67-15.5 237.67-17.5Q237.67-18.58 237.3-19.43 236.94-20.29 236.28-20.9 235.62-21.51 234.7-21.83 233.79-22.14 232.67-22.14L232.67-22.14Q231.79-22.14 230.79-21.94 229.78-21.73 228.81-21.36 227.83-21 226.9-20.5 225.98-20 225.24-19.41L225.24-19.41 224.8-19.65 223.68-23.75Q226.64-25.29 229.17-25.83 231.71-26.37 233.93-26.37L233.93-26.37Q236.23-26.37 238.02-25.9 239.82-25.44 241.06-24.48 242.31-23.51 242.96-22.03 243.6-20.56 243.6-18.53L243.6-18.53 243.6-6.57Q243.6-6.2 243.66-5.76 243.73-5.32 243.91-4.93 244.09-4.54 244.45-4.27 244.8-4 245.39-4L245.39-4Q245.73-4 246.22-4.1 246.7-4.2 247.19-4.42L247.19-4.42 247.19-1.49Q245.87-0.59 244.57-0.05 243.26 0.49 242.02 0.49L242.02 0.49Q241.04 0.49 240.33 0.12 239.62-0.24 239.14-0.84 238.65-1.44 238.32-2.21 237.99-2.98 237.77-3.81ZM237.67-6.96L237.67-12.62 236.13-12.62Q233.59-12.62 232.04-12.27 230.49-11.91 229.64-11.29 228.78-10.67 228.5-9.85 228.22-9.03 228.22-8.08L228.22-8.08Q228.22-7.08 228.52-6.32 228.81-5.57 229.31-5.05 229.81-4.54 230.49-4.27 231.18-4 231.96-4L231.96-4Q232.54-4 233.18-4.14 233.81-4.27 234.51-4.61 235.2-4.96 235.99-5.52 236.77-6.08 237.67-6.96L237.67-6.96ZM251.07-1.22L252.12-5.66 252.56-5.93Q253.51-5.42 254.55-5 255.59-4.59 256.61-4.31 257.64-4.03 258.62-3.88 259.59-3.74 260.45-3.74L260.45-3.74Q262.67-3.74 263.93-4.66 265.18-5.59 265.18-7.03L265.18-7.03Q265.18-8.01 264.61-8.64 264.04-9.28 263.1-9.73 262.16-10.18 260.96-10.52 259.76-10.86 258.51-11.24 257.25-11.62 256.05-12.11 254.86-12.6 253.92-13.35 252.98-14.11 252.4-15.2 251.83-16.28 251.83-17.87L251.83-17.87Q251.83-19.65 252.6-21.22 253.37-22.78 254.79-23.91 256.22-25.05 258.26-25.71 260.3-26.37 262.84-26.37L262.84-26.37Q263.47-26.37 264.32-26.32 265.16-26.27 266.07-26.16 266.99-26.05 267.92-25.88 268.84-25.71 269.65-25.44L269.65-25.44 268.58-21.07 268.04-20.75Q267.31-21.12 266.46-21.39 265.62-21.66 264.78-21.81 263.94-21.97 263.14-22.06 262.35-22.14 261.74-22.14L261.74-22.14Q259.59-22.14 258.38-21.29 257.17-20.43 257.17-18.99L257.17-18.99Q257.17-17.99 257.76-17.35 258.35-16.7 259.29-16.25 260.23-15.8 261.45-15.47 262.67-15.14 263.93-14.76 265.18-14.38 266.4-13.89 267.62-13.4 268.56-12.65 269.5-11.89 270.09-10.79 270.68-9.69 270.68-8.08L270.68-8.08Q270.68-6.27 269.89-4.7 269.11-3.13 267.67-1.98 266.23-0.83 264.21-0.17 262.18 0.49 259.71 0.49L259.71 0.49Q257.69 0.49 255.42 0.05 253.15-0.39 251.07-1.22L251.07-1.22ZM277.19 0L277.19-39.11 283.1-39.11 283.1-21.7Q284-22.51 285.09-23.33 286.18-24.15 287.38-24.83 288.59-25.51 289.94-25.94 291.28-26.37 292.72-26.37L292.72-26.37Q294.48-26.37 295.92-25.71 297.36-25.05 298.38-23.85 299.41-22.66 299.97-20.97 300.53-19.29 300.53-17.24L300.53-17.24 300.53 0 294.6 0 294.6-16.58Q294.6-17.9 294.23-18.88 293.87-19.87 293.23-20.53 292.6-21.19 291.71-21.52 290.81-21.85 289.79-21.85L289.79-21.85Q287.98-21.85 286.37-20.92 284.76-20 283.1-18.48L283.1-18.48 283.1 0 277.19 0ZM308.66 0L308.66-25.88 314.59-25.88 314.59 0 308.66 0ZM311.61-30.98L311.61-30.98Q310.83-30.98 310.18-31.24 309.54-31.49 309.06-31.93 308.59-32.37 308.33-32.98 308.07-33.59 308.07-34.3L308.07-34.3Q308.07-35.03 308.35-35.66 308.63-36.28 309.13-36.76 309.64-37.23 310.31-37.5 310.98-37.77 311.76-37.77L311.76-37.77Q312.52-37.77 313.15-37.5 313.79-37.23 314.25-36.78 314.71-36.33 314.98-35.71 315.25-35.08 315.25-34.38L315.25-34.38Q315.25-33.64 314.97-33.02 314.69-32.4 314.19-31.95 313.69-31.49 313.03-31.24 312.37-30.98 311.61-30.98ZM333.73 0.49L333.73 0.49Q330.68 0.49 328.35-0.54 326.01-1.56 324.43-3.31 322.84-5.05 322.02-7.35 321.21-9.64 321.21-12.21L321.21-12.21Q321.21-15.16 322.26-17.74 323.3-20.31 325.2-22.23 327.09-24.15 329.7-25.26 332.31-26.37 335.44-26.37L335.44-26.37Q338.49-26.37 340.83-25.34 343.18-24.32 344.76-22.56 346.35-20.8 347.17-18.49 347.99-16.19 347.99-13.62L347.99-13.62Q347.99-10.64 346.93-8.07 345.86-5.49 343.96-3.59 342.05-1.68 339.44-0.6 336.83 0.49 333.73 0.49ZM334.76-3.74L334.76-3.74Q336.32-3.74 337.61-4.38 338.91-5.03 339.83-6.19 340.76-7.35 341.27-8.96 341.79-10.57 341.79-12.52L341.79-12.52Q341.79-14.43 341.29-16.16 340.79-17.9 339.83-19.23 338.88-20.56 337.51-21.35 336.15-22.14 334.41-22.14L334.41-22.14Q332.83-22.14 331.53-21.48 330.24-20.83 329.32-19.65 328.41-18.48 327.89-16.86 327.38-15.23 327.38-13.31L327.38-13.31Q327.38-11.38 327.88-9.64 328.38-7.91 329.34-6.59 330.29-5.27 331.65-4.5 333.02-3.74 334.76-3.74ZM354.58 0L354.58-25.88 359.36-25.88 360.19-21.46Q361.05-22.24 362.12-23.11 363.19-23.97 364.46-24.69 365.73-25.42 367.14-25.89 368.54-26.37 370.06-26.37L370.06-26.37Q371.84-26.37 373.29-25.7 374.74-25.02 375.77-23.82 376.79-22.61 377.36-20.92 377.92-19.24 377.92-17.24L377.92-17.24 377.92 0 371.98 0 371.98-16.53Q371.98-17.85 371.62-18.85 371.25-19.85 370.6-20.51 369.96-21.17 369.07-21.51 368.18-21.85 367.15-21.85L367.15-21.85Q365.34-21.85 363.73-20.92 362.12-20 360.48-18.48L360.48-18.48 360.48 0 354.58 0Z" opacity="1" transform="matrix(1,0,0,1,0,0)" fill="white" class="undefined-text-1" id="SvgjsPath3041"></path></svg></g></svg></g></svg></g></svg></g><g></g></svg></g></svg></g></svg></g><defs><linearGradient x1="0.054" x2="0.941" y1="0.5" y2="0.5" id="SvgjsLinearGradient3040"><stop stop-color="#8c8c8c" offset="0"></stop><stop stop-color="#e3e4e5" offset="0.498"></stop><stop stop-color="#8c8c8c" offset="1"></stop></linearGradient><mask></mask></defs></svg></g></mask><mask id="bf5482b9-415b-4f5e-b24c-50992acc1356"><g id="SvgjsG3057"><svg viewBox="0 0 320 360" height="360" width="320"><g><svg></svg></g><g><svg viewBox="0 0 320 360" height="360" width="320"><g><path xmlns="http://www.w3.org/2000/svg" d="M320 187.111c0-45.764-20.238-86.866-52.203-114.908-28.043-31.964-69.145-52.203-114.908-52.203-84.302 0-152.889 68.587-152.889 152.889 0 45.753 20.231 86.848 52.185 114.891 28.043 31.975 69.152 52.22 114.926 52.22 0.299 0 0.59-0.021 0.889-0.021 0.299 0 0.59 0.021 0.889 0.021 83.456 0 151.111-67.655 151.111-151.111 0-0.299-0.021-0.59-0.021-0.889 0-0.299 0.021-0.59 0.021-0.889zM59.833 263.097c-15.093-21.255-24.071-47.143-24.256-75.097 0.48-72.928 59.492-131.943 132.423-132.423 27.954 0.185 53.845 9.163 75.097 24.256 24.366 23.627 39.57 56.64 39.57 93.056 0 71.559-58.219 129.778-129.778 129.778-36.416 0-69.429-15.204-93.056-39.57zM3.556 172.889c0-82.343 66.99-149.333 149.333-149.333 35.051 0 67.292 12.167 92.8 32.462-22.98-13.824-49.863-21.796-78.578-21.796-84.302 0-152.889 68.587-152.889 152.889 0 28.708 7.968 55.584 21.785 78.56-20.288-25.5-32.452-57.739-32.451-92.782zM167.111 318.667c-35.84 0-68.363-14.418-92.107-37.743 21.952 15.89 48.864 25.298 77.885 25.298 73.522 0 133.333-59.812 133.333-133.333 0-29.02-9.408-55.932-25.298-77.885 23.324 23.744 37.742 56.267 37.743 92.107 0 72.54-59.015 131.556-131.556 131.556z" fill="white" fill-rule="nonzero" stroke="none" stroke-width="1" stroke-linecap="butt" stroke-linejoin="miter" stroke-miterlimit="10" stroke-dasharray="" stroke-dashoffset="0" font-family="none" font-weight="none" font-size="none" text-anchor="none" style="mix-blend-mode: normal"></path></g><g transform="matrix(1,0,0,1,64,125.15400397723994)"><svg viewBox="0 0 192 109.69199204552012" height="109.69199204552012" width="192"><g><svg viewBox="0 0 192 109.69199204552012" height="109.69199204552012" width="192"><g><svg viewBox="0 0 192 109.69199204552012" height="109.69199204552012" width="192"><g id="SvgjsG3056"><svg viewBox="0 0 192 109.69199204552012" height="109.69199204552012" width="192" id="SvgjsSvg3055"><g><svg viewBox="0 0 192 81.97559218693596" height="81.97559218693596" width="192"><path d="M191.55 17.582C190.648 9.073 188.075 6.708 188.075 6.708 180.177-2.057 170.321-0.168 161.466 1.092 145.832 1.143 130.262 3.015 114.664 4.019 81.926 4.172 48.907 1.653 16.331 7.865 13.271 9.771-3.175 8.239 0.544 18.671 1.519 23.011 5.076 27.827 4.967 31.809 5.455 32.507 6.132 30.907 6.42 31.911 7.431 34.617 9.083 33.341 10.437 34.941 8.551 39.212 9.905 42.769 11.195 46.496 8.921 47.466 6.005 47.006 4.696 50.223 4.561 52.554 3.83 52.112 3.027 52.01 2.44 51.942 1.257 52.197 1.456 52.929 2.133 55.43-0.774 56.877 1.05 59.328-0.205 61.982 1.916 64.28 1.627 67.156 1.591 67.734 1.79 68.228 2.106 68.364 3.505 69.096 1.465 70.525 1.682 72.074 16.033 82.659 31.604 75.342 46.308 80.209 50.126 76.805 47.256 81.417 48.781 80.702 49.972 79.868 50.839 83.323 52.184 81.366 52.392 80.804 52.076 79.477 52.816 79.732 53.204 79.868 53.547 79.834 53.601 79.051 53.682 77.877 52.969 78.609 52.78 77.996 54.829 74.899 54.323 82.268 56.246 81.962 56.156 81.06 55.596 79.766 56.742 79.936 57.88 78.643 57.916 77.571 58.927 80.481 58.963 81.111 59.143 81.553 59.432 81.859 62.591 78.694 65.732 82.983 69.045 81.553 71.076 79.987 73.026 82.404 75.084 81.808 75.806 81.332 76.537 80.481 77.232 81.911 85.744 82.217 94.815 80.94 102.885 81.962 124.449 80.056 147.493 82.744 170.23 80.226 175.592 79.256 181.161 77.877 186.387 76.771 186.387 76.771 190.621 73.742 190.621 60.127S191.523 48.215 191.659 37.374C191.794 26.534 192.426 26.091 191.523 17.582Z" opacity="1" fill="white"></path><g transform="matrix(1,0,0,1,27.072000000000003,17.083765800000002)"><svg width="137.856" viewBox="-2 -40.79999923706055 159.44000244140625 55.94999694824219" height="47.808060586935945" data-palette-color="#ffffff"></svg></g></svg></g><g transform="matrix(1,0,0,1,38.217,92.23496377511646)"><svg viewBox="0 0 115.566 17.45702827040366" height="17.45702827040366" width="115.566"><g transform="matrix(1,0,0,1,0,0)"><svg width="115.566" viewBox="-1.9299999475479126 -42.599998474121094 382.8500061035156 58.689998626708984" height="17.45702827040366" data-palette-color="url(#26dc45f3-a72f-464d-a431-88b193c3fdc8)"></svg></g></svg></g></svg></g></svg></g><g></g></svg></g></svg></g></svg></g><defs><linearGradient x1="0.054" x2="0.941" y1="0.5" y2="0.5" id="SvgjsLinearGradient3053"><stop stop-color="#8c8c8c" offset="0"></stop><stop stop-color="#e3e4e5" offset="0.498"></stop><stop stop-color="#8c8c8c" offset="1"></stop></linearGradient><linearGradient x1="0.054" x2="0.941" y1="0.5" y2="0.5" id="SvgjsLinearGradient3052"><stop stop-color="#9c7945" offset="0"></stop><stop stop-color="#faf3aa" offset="0.498"></stop><stop stop-color="#9c7945" offset="1"></stop></linearGradient><mask></mask></defs><mask id="SvgjsMask3051"><g id="SvgjsG3050"><svg viewBox="0 0 320 360" height="360" width="320"><g><svg></svg></g><g><svg viewBox="0 0 320 360" height="360" width="320"><g></g><g transform="matrix(1,0,0,1,64,125.15400397723994)"><svg viewBox="0 0 192 109.69199204552012" height="109.69199204552012" width="192"><g><svg viewBox="0 0 192 109.69199204552012" height="109.69199204552012" width="192"><g><svg viewBox="0 0 192 109.69199204552012" height="109.69199204552012" width="192"><g id="SvgjsG3049"><svg viewBox="0 0 192 109.69199204552012" height="109.69199204552012" width="192" id="SvgjsSvg3048"><g><svg viewBox="0 0 192 81.97559218693596" height="81.97559218693596" width="192"><g transform="matrix(1,0,0,1,27.072000000000003,17.083765800000002)"><svg width="137.856" viewBox="-2 -40.79999923706055 159.44000244140625 55.94999694824219" height="47.808060586935945" data-palette-color="#ffffff"></svg></g></svg></g><g transform="matrix(1,0,0,1,38.217,92.23496377511646)"><svg viewBox="0 0 115.566 17.45702827040366" height="17.45702827040366" width="115.566"><g transform="matrix(1,0,0,1,0,0)"><svg width="115.566" viewBox="-1.9299999475479126 -42.599998474121094 382.8500061035156 58.689998626708984" height="17.45702827040366" data-palette-color="url(#26dc45f3-a72f-464d-a431-88b193c3fdc8)"></svg></g></svg></g></svg></g></svg></g><g></g></svg></g></svg></g></svg></g><defs><linearGradient x1="0.054" x2="0.941" y1="0.5" y2="0.5" id="SvgjsLinearGradient3046"><stop stop-color="#8c8c8c" offset="0"></stop><stop stop-color="#e3e4e5" offset="0.498"></stop><stop stop-color="#8c8c8c" offset="1"></stop></linearGradient><mask></mask></defs></svg></g></mask></svg></g></mask></svg><rect width="320" height="360" fill="none" stroke="none" visibility="hidden"></rect></g></svg></g></svg>