<svg xmlns="http://www.w3.org/2000/svg" version="1.1" xmlns:xlink="http://www.w3.org/1999/xlink" xmlns:svgjs="http://svgjs.dev/svgjs" width="2000" height="499" viewBox="0 0 2000 499"><g transform="matrix(1,0,0,1,-1.2112696095522324,-1.242777873171292)"><svg viewBox="0 0 396 99" data-background-color="#35185a" preserveAspectRatio="xMidYMid meet" height="499" width="2000" xmlns="http://www.w3.org/2000/svg" xmlns:xlink="http://www.w3.org/1999/xlink"><g id="tight-bounds" transform="matrix(1,0,0,1,0.24008861730862918,0.24656314517827127)"><svg viewBox="0 0 395.52 98.50687370964346" height="98.50687370964346" width="395.52"><g><svg viewBox="0 0 395.52 98.50687370964346" height="98.50687370964346" width="395.52"><g><svg viewBox="0 0 395.52 98.50687370964346" height="98.50687370964346" width="395.52"><g id="textblocktransform"><svg viewBox="0 0 395.52 98.50687370964346" height="98.50687370964346" width="395.52" id="textblock"><g><svg viewBox="0 0 395.52 98.50687370964346" height="98.50687370964346" width="395.52"><path d="M394.594 21.128C392.735 10.903 387.435 8.06 387.435 8.06 371.165-2.471 350.86-0.201 332.619 1.312 300.414 1.373 268.339 3.623 236.208 4.829 168.767 5.013 100.749 1.987 33.643 9.451 27.339 11.741-6.54 9.901 1.121 22.437 3.129 27.651 10.456 33.439 10.232 38.224 11.236 39.062 12.631 37.14 13.226 38.347 15.309 41.598 18.711 40.065 21.501 41.987 17.614 47.12 20.403 51.394 23.062 55.872 18.377 57.038 12.371 56.486 9.675 60.351 9.396 63.153 7.89 62.621 6.235 62.498 5.026 62.416 2.59 62.723 2.999 63.602 4.394 66.609-1.594 68.347 2.162 71.292-0.422 74.482 3.948 77.243 3.353 80.699 3.278 81.394 3.687 81.987 4.338 82.151 7.22 83.03 3.018 84.748 3.464 86.609 33.029 99.328 65.104 90.535 95.394 96.384 103.259 92.294 97.346 97.836 100.489 96.977 102.943 95.975 104.728 100.126 107.499 97.774 107.927 97.099 107.276 95.504 108.8 95.811 109.6 95.975 110.307 95.934 110.418 94.993 110.586 93.582 109.117 94.461 108.726 93.725 112.947 90.003 111.906 98.858 115.866 98.49 115.68 97.406 114.528 95.852 116.889 96.056 119.232 94.502 119.306 93.214 121.389 96.711 121.463 97.468 121.835 97.999 122.43 98.367 128.938 94.564 135.409 99.717 142.233 97.999 146.417 96.118 150.433 99.022 154.672 98.306 156.16 97.733 157.666 96.711 159.098 98.429 176.632 98.797 195.319 97.263 211.943 98.49 256.364 96.2 303.835 99.431 350.674 96.404 361.719 95.238 373.192 93.582 383.958 92.253 383.958 92.253 392.679 88.613 392.679 72.253S394.538 57.938 394.817 44.911C395.096 31.885 396.398 31.353 394.538 21.128Z" opacity="1" fill="#ffffff" data-fill-palette-color="tertiary"></path><g transform="matrix(1,0,0,1,55.76832,26.230666666666668)"><svg width="283.98335999999995" viewBox="0.8300000429153442 -30.639999389648438 193.3199920654297 31.349998474121094" height="46.04554037631013" data-palette-color="#35185a"><path d="M0.83-26.86L5.54-25.15 5.54-5.3 1.59-3.37 1.2 0 19.97 0 20.36-3.98 14.62-5.54 14.62-12.55 19.29-11.79 20.31-11.65 24.05-11.04 24.85-17.77 14.62-16.75 14.62-26.17 22.83-26.17 24.29-21.02 28.37-20.36 29.81-30.37 1.29-30.37 0.83-26.86ZM49.07 0L49.36-3.78 45.63-5.1 45.63-11.45 49.39-11.45 49.95-9.47Q50.95-5.96 52.41-3.75 53.88-1.54 56.04-0.45 58.2 0.63 61.28 0.63L61.28 0.63Q62.47 0.63 63.57 0.45 64.67 0.27 65.31-0.05L65.31-0.05 66.06-3.25 65.11-3.88Q63.16-5.18 61.51-6.65 59.86-8.13 58.37-10.25L58.37-10.25 55.86-13.94 55.86-13.96Q58.37-14.99 59.97-17.05 61.57-19.12 61.57-22.17L61.57-22.17Q61.57-25.27 59.93-27.14 58.3-29 55.11-29.82 51.93-30.64 47.02-30.64L47.02-30.64Q38.43-30.64 32.2-29.37L32.2-29.37 31.91-25.46 36.59-24.32 36.59-5.3 31.96-3.37 31.49 0 49.07 0ZM45.63-26.22Q45.9-26.25 46.43-26.25L46.43-26.25Q48.17-26.25 49.5-25.52 50.83-24.8 51.55-23.6 52.27-22.39 52.27-21L52.27-21Q52.27-19.14 51.85-17.92 51.44-16.7 50.58-15.82L50.58-15.82 45.63-15.82 45.63-26.22ZM67.74-26.86L72.38-25.15 72.38-5.3 68.38-3.86 68.13 0 97.21 0 97.94-10.03 93.92-10.45 90.35-4.39 81.49-4.88 81.49-13.18 84.25-12.7 90.91-11.47 91.72-18.21 85.52-17.7 84.74-17.65 81.49-17.38 81.49-26.17 89.91-26.17 91.94-20.8 96.11-20.17 96.85-30.37 68.21-30.37 67.74-26.86ZM99.72-26.54L104.05-24.49 104.05-5.3 99.87-3.37 99.63 0 113.81 0 114.13-3.61 109.73-5.15 109.73-15.11 122.01 0.71 129.17-0.37 129.17-25.07 132.54-26.71 133.15-30.37 119.79-30.37 119.21-26.71 123.8-24.9 123.8-12.52 110.08-30.37 100.07-30.37 99.72-26.54ZM134.83-5.76L135.15 0 159.51 0 161-10.6 157.34-11.16 152.77-4.3 144.03-5.03 160.76-26.59 160.95-30.37 135.78-30.37 135.51-20.61 140.4-19.82 141.93-26.1 150.23-26.1 134.83-5.76ZM162.71-26.59L165.98-25.07 174.01-11.84 174.01-5.3 170.13-3.37 169.69 0 186.83 0 187.15-3.42 183.07-5.4 183.07-12.16 190.78-25.07 193.57-26.54 194.15-30.37 182.6-30.37 182.02-26.54 184.44-25.02 180.75-18.04 177.11-25.1 178.94-26.59 179.63-30.4 163.49-30.4 162.71-26.59Z" opacity="1" transform="matrix(1,0,0,1,0,0)" fill="#35185a" class="undefined-text-0" data-fill-palette-color="quaternary" id="text-0"></path></svg></g></svg></g></svg></g></svg></g><g></g></svg></g><defs></defs></svg><rect width="395.52" height="98.50687370964346" fill="none" stroke="none" visibility="hidden"></rect></g></svg></g></svg>